<svg xmlns="http://www.w3.org/2000/svg" width="32" height="32" fill="none" viewBox="0 0 32 32">
    <path fill="#1A1A1A" d="M16 32c8.837 0 16-7.163 16-16S24.837 0 16 0 0 7.163 0 16s7.163 16 16 16z"/>
    <path fill="#fff" d="M24.205 8.216c.04.107.04.223 0 .33l-5.84 15.853c-.091.247-.365.373-.612.282-.136-.05-.241-.159-.287-.296l-2.405-7.208c-.018-.014-.035-.03-.052-.047l-.047-.054-7.208-2.403c-.249-.083-.384-.353-.3-.602.045-.137.15-.246.286-.296l15.854-5.841c.246-.09.52.035.611.282zm-9.74 11.33c.256.251.281.648.076.929l-.069.08-2.034 2.061c-.277.281-.73.284-1.01.007-.256-.252-.281-.649-.076-.93l.069-.08 2.034-2.061c.277-.281.73-.284 1.01-.007zm-1.779-1.997c.254.253.277.65.07.93l-.07.08-3.81 3.81c-.279.278-.73.278-1.01 0-.253-.254-.276-.651-.069-.93l.07-.081 3.809-3.81c.279-.278.731-.278 1.01 0zm9.464-7.561l-11.368 4.188 4.627 1.542 2.457-2.455c.28-.28.732-.28 1.01 0 .254.253.277.65.07.93l-.07.08-2.456 2.456 1.542 4.627L22.15 9.988z"/>
</svg>
