<svg xmlns="http://www.w3.org/2000/svg" width="32" height="32" fill="none" style=""><rect id="backgroundrect" width="100%" height="100%" x="0" y="0" fill="none" stroke="none"/>
    
    
<g class="currentLayer" style=""><title>Layer 1</title><path fill="#b80404" d="M16 32c8.837 0 16-7.163 16-16S24.837 0 16 0 0 7.163 0 16s7.163 16 16 16z" opacity="1" id="svg_1" class="" fill-opacity="1"/><path fill="#fff" d="M24.205 8.216c.04.107.04.223 0 .33l-5.84 15.853c-.091.247-.365.373-.612.282-.136-.05-.241-.159-.287-.296l-2.405-7.208c-.018-.014-.035-.03-.052-.047l-.047-.054-7.208-2.402c-.249-.084-.384-.353-.3-.603.045-.137.15-.246.286-.296l15.854-5.84c.246-.092.52.035.611.281zm-9.74 11.33c.256.251.281.648.076.929l-.069.08-2.034 2.061c-.277.281-.73.284-1.01.007-.256-.252-.281-.648-.076-.93l.069-.08 2.034-2.061c.277-.28.73-.284 1.01-.007zm-1.779-1.997c.254.253.277.65.07.93l-.07.08-3.81 3.81c-.279.278-.73.278-1.01 0-.253-.254-.276-.651-.069-.93l.07-.08 3.809-3.81c.279-.28.731-.28 1.01 0zm9.464-7.56l-11.368 4.188 4.627 1.542 2.457-2.456c.28-.279.732-.279 1.01 0 .254.254.277.65.07.93l-.07.08-2.456 2.456 1.542 4.628L22.15 9.988z" id="svg_2" class="" transform="rotate(14.23874282836914 15.832019805908224,16.307790756225586) "/><rect fill="#b80404" stroke-dashoffset="" fill-rule="nonzero" id="svg_3" x="2.82608699798584" y="16.36956524848938" width="10" height="7" style="color: rgb(134, 43, 43);" class=""/><rect fill="#b80404" stroke-dashoffset="" fill-rule="nonzero" id="svg_5" x="5" y="18" width="9" height="3" style="color: rgb(134, 43, 43);"/><rect fill="#b80404" stroke-dashoffset="" fill-rule="nonzero" id="svg_7" x="8" y="17" width="6" height="1" style="color: rgb(134, 43, 43);" class="" transform="rotate(31.448257446289062 10.999999999999995,17.5) "/><path fill="#fff" fill-opacity="1" stroke="none" stroke-opacity="1" stroke-width="1" stroke-dasharray="none" stroke-linejoin="miter" stroke-linecap="butt" stroke-dashoffset="" fill-rule="nonzero" opacity="1" marker-start="" marker-mid="" marker-end="" d="M6.217392518412112,15.456522785591886L14.369566283570748,17.086957538623608" id="svg_10"/><path fill="#fff" fill-opacity="1" stroke="none" stroke-opacity="1" stroke-width="1" stroke-dasharray="none" stroke-linejoin="miter" stroke-linecap="butt" stroke-dashoffset="" fill-rule="nonzero" opacity="1" marker-start="" marker-mid="" marker-end="" d="M8.391305522454445,17.63043578963419L10.021740275486138,16.543479287613025" id="svg_12"/><path fill="#fff" fill-opacity="1" stroke="none" stroke-opacity="1" stroke-width="1" stroke-dasharray="none" stroke-linejoin="miter" stroke-linecap="butt" stroke-dashoffset="" fill-rule="nonzero" opacity="1" marker-start="" marker-mid="" marker-end="" d="M8.934783773465028,18.717392291655358L13.282609781549581,14.913044534581331" id="svg_14"/><path fill="#fff" fill-opacity="1" stroke="none" stroke-opacity="1" stroke-width="1" stroke-dasharray="none" stroke-linejoin="miter" stroke-linecap="butt" stroke-dashoffset="" fill-rule="nonzero" opacity="1" marker-start="" marker-mid="" marker-end="" d="M8.391305522454445,18.717392291655358L16.000001036602498,14.369566283570748" id="svg_16"/><path fill="#fff" fill-opacity="1" stroke="none" stroke-opacity="1" stroke-width="1" stroke-dasharray="none" stroke-linejoin="miter" stroke-linecap="butt" stroke-dashoffset="" fill-rule="nonzero" opacity="1" marker-start="" marker-mid="" marker-end="" d="M8.391305522454445,17.63043578963419L16.000001036602498,14.369566283570748" id="svg_18"/><path fill="#fff" fill-opacity="1" stroke="none" stroke-opacity="1" stroke-width="1" stroke-dasharray="none" stroke-linejoin="miter" stroke-linecap="butt" stroke-dashoffset="" fill-rule="nonzero" opacity="1" marker-start="" marker-mid="" marker-end="" d="M8.934783773465028,16.000001036602498L15.456522785591915,15.456522785591886" id="svg_20"/></g></svg>